<?xml version="1.0" encoding="UTF-8" standalone="no"?>
<!-- Generated by graphviz version 2.40.1 (20161225.0304)
 -->

<!-- Title: %3 Pages: 1 -->

<svg
   xmlns:dc="http://purl.org/dc/elements/1.1/"
   xmlns:cc="http://creativecommons.org/ns#"
   xmlns:rdf="http://www.w3.org/1999/02/22-rdf-syntax-ns#"
   xmlns:svg="http://www.w3.org/2000/svg"
   xmlns="http://www.w3.org/2000/svg"
   xmlns:sodipodi="http://sodipodi.sourceforge.net/DTD/sodipodi-0.dtd"
   xmlns:inkscape="http://www.inkscape.org/namespaces/inkscape"
   viewBox="0.00 0.00 1000.00 700.00"
   version="1.1"
   id="svg256"
   sodipodi:docname="trpl04-01.svg"
   inkscape:version="0.92.1 r15371">
  <metadata
     id="metadata262">
    <rdf:RDF>
      <cc:Work
         rdf:about="">
        <dc:format>image/svg+xml</dc:format>
        <dc:type
           rdf:resource="http://purl.org/dc/dcmitype/StillImage" />
      </cc:Work>
    </rdf:RDF>
  </metadata>
  <defs
     id="defs260" />
  <sodipodi:namedview
     pagecolor="#ffffff"
     bordercolor="#666666"
     borderopacity="1"
     objecttolerance="10"
     gridtolerance="10"
     guidetolerance="10"
     inkscape:pageopacity="0"
     inkscape:pageshadow="2"
     inkscape:window-width="1024"
     inkscape:window-height="555"
     id="namedview258"
     showgrid="false"
     inkscape:zoom="0.37375644"
     inkscape:cx="532.4322"
     inkscape:cy="442.57781"
     inkscape:window-x="0"
     inkscape:window-y="0"
     inkscape:window-maximized="1"
     inkscape:current-layer="svg256" />
  <polygon
     style="fill:#ffffff"
     id="polygon158"
     points="233,-152 233,4 -4,4 -4,-152 "
     stroke="transparent"
     transform="matrix(4.1667,0,0,4.1667,16.6668,633.3384)" />
  <g
     id="g4904"
     transform="translate(0,94.593798)">
    <polyline
       transform="matrix(4.1667,0,0,4.1667,32.327585,633.3384)"
       style="fill:none;stroke:#000000"
       id="polyline162"
       points="8,-124 96,-124 " />
    <text
       style="font-size:58.33380127px;font-family:Times, serif;text-anchor:start;fill:#000000;stroke-width:4.16669989"
       id="text164"
       font-size="14.00"
       y="92.500725"
       x="176.40314">sento</text>
    <text
       style="font-size:58.33380127px;font-family:Times, serif;text-anchor:start;fill:#000000;stroke-width:4.16669989"
       id="text168"
       font-size="14.00"
       y="175.83473"
       x="97.575256">nomo</text>
    <g
       transform="translate(15.660785)"
       id="g4029">
      <polygon
         points="8,-124 60,-124 60,-104 8,-104 "
         id="polygon166"
         style="fill:none;stroke:#000000"
         transform="matrix(4.5632062,0,0,4.1642939,-7.2198156,633.13629)" />
      <polygon
         points="60,-104 60,-124 96,-124 96,-104 "
         id="polygon170"
         style="fill:none;stroke:#000000"
         transform="matrix(4.1667,0,0,4.1667,16.6668,633.3384)" />
    </g>
    <text
       style="font-size:58.33380127px;font-family:Times, serif;text-anchor:start;fill:#000000;stroke-width:4.16669989"
       id="text172"
       font-size="14.00"
       y="175.83473"
       x="321.52191">aĵo</text>
    <polygon
       transform="matrix(4.5632062,0,0,4.1642939,8.4409694,633.13629)"
       style="fill:none;stroke:#000000"
       id="polygon174"
       points="8,-104 60,-104 60,-84 8,-84 " />
    <text
       style="font-size:58.33380127px;font-family:Times, serif;text-anchor:start;fill:#000000;stroke-width:4.16669989"
       id="text176"
       font-size="14.00"
       y="259.16873"
       x="105.40064">deilo</text>
    <polygon
       transform="matrix(4.1667,0,0,4.1667,32.327585,633.3384)"
       style="fill:none;stroke:#000000"
       id="polygon178"
       points="60,-84 60,-104 96,-104 96,-84 " />
    <polygon
       transform="matrix(4.5632062,0,0,4.1642939,8.4409694,633.13629)"
       style="fill:none;stroke:#000000"
       id="polygon180"
       points="8,-84 60,-84 60,-64 8,-64 " />
    <text
       style="font-size:58.33380127px;font-family:Times, serif;text-anchor:start;fill:#000000;stroke-width:4.16669989"
       id="text182"
       font-size="14.00"
       y="342.50272"
       x="113.19823">areo</text>
    <polygon
       transform="matrix(4.1667,0,0,4.1667,32.327585,633.3384)"
       style="fill:none;stroke:#000000"
       id="polygon184"
       points="60,-64 60,-84 96,-84 96,-64 " />
    <text
       style="font-size:58.33380127px;font-family:Times, serif;text-anchor:start;fill:#000000;stroke-width:4.16669989"
       id="text186"
       font-size="14.00"
       y="342.50272"
       x="343.47592">3</text>
    <polygon
       transform="matrix(4.5632062,0,0,4.1642939,8.4409694,633.13629)"
       style="fill:none;stroke:#000000"
       id="polygon188"
       points="60,-44 8,-44 8,-64 60,-64 " />
    <text
       style="font-size:58.33380127px;font-family:Times, serif;text-anchor:start;fill:#000000;stroke-width:4.16669989"
       id="text190"
       font-size="14.00"
       y="425.83673"
       x="53.676338">enhaveco</text>
    <polygon
       transform="matrix(4.1667,0,0,4.1667,32.327585,633.3384)"
       style="fill:none;stroke:#000000"
       id="polygon192"
       points="60,-44 60,-64 96,-64 96,-44 " />
    <text
       style="font-size:58.33380127px;font-family:Times, serif;text-anchor:start;fill:#000000;stroke-width:4.16669989"
       id="text194"
       font-size="14.00"
       y="425.83673"
       x="343.47592">3</text>
    <polygon
       transform="matrix(6.2886495,0,0,4.1588056,-361.76771,632.83316)"
       style="fill:none;stroke:#000000"
       id="polygon199"
       points="148.5,-124 185.5,-124 185.5,-104 148.5,-104 " />
    <text
       style="font-size:58.33380127px;font-family:Times, serif;text-anchor:start;fill:#000000;stroke-width:4.16669989"
       id="text201"
       font-size="14.00"
       y="175.83473"
       x="598.15424">indekso</text>
    <polygon
       transform="matrix(4.1667,0,0,4.1667,32.327585,633.3384)"
       style="fill:none;stroke:#000000"
       id="polygon203"
       points="185.5,-104 185.5,-124 221.5,-124 221.5,-104 " />
    <text
       style="font-size:58.33380127px;font-family:Times, serif;text-anchor:start;fill:#000000;stroke-width:4.16669989"
       id="text205"
       font-size="14.00"
       y="175.83473"
       x="844.44275">aĵo</text>
    <polygon
       transform="matrix(6.2886495,0,0,4.1588056,-361.76771,632.83316)"
       style="fill:none;stroke:#000000"
       id="polygon207"
       points="148.5,-104 185.5,-104 185.5,-84 148.5,-84 " />
    <text
       style="font-size:58.33380127px;font-family:Times, serif;text-anchor:start;fill:#000000;stroke-width:4.16669989"
       id="text209"
       font-size="14.00"
       y="259.16873"
       x="673.85327">0</text>
    <polygon
       transform="matrix(4.1667,0,0,4.1667,32.327585,633.3384)"
       style="fill:none;stroke:#000000"
       id="polygon211"
       points="185.5,-84 185.5,-104 221.5,-104 221.5,-84 " />
    <text
       style="font-size:58.33380127px;font-family:Times, serif;text-anchor:start;fill:#000000;stroke-width:4.16669989"
       id="text213"
       font-size="14.00"
       y="259.16873"
       x="866.28009">a</text>
    <polygon
       transform="matrix(6.2886495,0,0,4.1588056,-361.76771,632.83316)"
       style="fill:none;stroke:#000000"
       id="polygon215"
       points="148.5,-84 185.5,-84 185.5,-64 148.5,-64 " />
    <text
       style="font-size:58.33380127px;font-family:Times, serif;text-anchor:start;fill:#000000;stroke-width:4.16669989"
       id="text217"
       font-size="14.00"
       y="342.50272"
       x="673.70746">1</text>
    <polygon
       transform="matrix(4.1667,0,0,4.1667,32.327585,633.3384)"
       style="fill:none;stroke:#000000"
       id="polygon219"
       points="185.5,-64 185.5,-84 221.5,-84 221.5,-64 " />
    <text
       style="font-size:58.33380127px;font-family:Times, serif;text-anchor:start;fill:#000000;stroke-width:4.16669989"
       id="text221"
       font-size="14.00"
       y="342.50272"
       x="857.17999">m</text>
    <polygon
       transform="matrix(6.2886495,0,0,4.1588056,-361.76771,632.83316)"
       style="fill:none;stroke:#000000"
       id="polygon223"
       points="148.5,-64 185.5,-64 185.5,-44 148.5,-44 " />
    <text
       style="font-size:58.33380127px;font-family:Times, serif;text-anchor:start;fill:#000000;stroke-width:4.16669989"
       id="text225"
       font-size="14.00"
       y="425.83673"
       x="673.70746">2</text>
    <polygon
       transform="matrix(4.1667,0,0,4.1667,32.327585,633.3384)"
       style="fill:none;stroke:#000000"
       id="polygon227"
       points="185.5,-44 185.5,-64 221.5,-64 221.5,-44 " />
    <text
       style="font-size:58.33380127px;font-family:Times, serif;text-anchor:start;fill:#000000;stroke-width:4.16669989"
       id="text229"
       font-size="14.00"
       y="425.83673"
       x="865.69672">o</text>
    <path
       style="fill:none;stroke:#000000;stroke-width:3.44645143"
       inkscape:connector-curvature="0"
       id="path250"
       d="m 357.33018,241.6686 c 0,0 89.34277,0 172.12465,0" />
    <polygon
       transform="matrix(4.1667,0,0,4.1667,-47.672415,633.3384)"
       style="fill:#000000;stroke:#000000"
       id="polygon252"
       points="138.5,-97.5001 148.5,-94 138.5,-90.5001 " />
  </g>
</svg>
