<?xml version="1.0" encoding="UTF-8" standalone="no"?>
<!-- Generated by graphviz version 2.40.1 (20161225.0304)
 -->

<!-- Title: %3 Pages: 1 -->

<svg
   xmlns:dc="http://purl.org/dc/elements/1.1/"
   xmlns:cc="http://creativecommons.org/ns#"
   xmlns:rdf="http://www.w3.org/1999/02/22-rdf-syntax-ns#"
   xmlns:svg="http://www.w3.org/2000/svg"
   xmlns="http://www.w3.org/2000/svg"
   xmlns:sodipodi="http://sodipodi.sourceforge.net/DTD/sodipodi-0.dtd"
   xmlns:inkscape="http://www.inkscape.org/namespaces/inkscape"
   viewBox="0.00 0.00 1000.00 1279.00"
   version="1.1"
   id="svg9156"
   sodipodi:docname="trpl04-06.svg"
   inkscape:version="0.92.1 r15371">
  <metadata
     id="metadata9162">
    <rdf:RDF>
      <cc:Work
         rdf:about="">
        <dc:format>image/svg+xml</dc:format>
        <dc:type
           rdf:resource="http://purl.org/dc/dcmitype/StillImage" />
      </cc:Work>
    </rdf:RDF>
  </metadata>
  <defs
     id="defs9160" />
  <sodipodi:namedview
     pagecolor="#ffffff"
     bordercolor="#666666"
     borderopacity="1"
     objecttolerance="10"
     gridtolerance="10"
     guidetolerance="10"
     inkscape:pageopacity="0"
     inkscape:pageshadow="2"
     inkscape:window-width="1024"
     inkscape:window-height="555"
     id="namedview9158"
     showgrid="false"
     inkscape:zoom="0.52189898"
     inkscape:cx="462.04013"
     inkscape:cy="537.98168"
     inkscape:window-x="0"
     inkscape:window-y="0"
     inkscape:window-maximized="1"
     inkscape:current-layer="svg9156" />
  <polygon
     style="fill:#ffffff"
     id="polygon8974"
     points="233,-275 233,4 -4,4 -4,-275 "
     stroke="transparent"
     transform="matrix(4.1667,0,0,4.1667,16.6668,1145.8425)" />
  <polyline
     points="16,-121 88,-121 "
     id="polyline8978"
     style="fill:none;stroke:#000000"
     transform="matrix(4.1667,0,0,4.1667,16.6668,1145.8425)" />
  <text
     x="165.28841"
     y="617.50494"
     font-size="14.00"
     id="text8980"
     style="font-size:58.33380127px;font-family:Times, serif;text-anchor:start;fill:#000000;stroke-width:4.16669989">mondo</text>
  <polygon
     points="16,-101 16,-121 52,-121 52,-101 "
     id="polygon8982"
     style="fill:none;stroke:#000000"
     transform="matrix(4.1667,0,0,4.1667,16.6668,1145.8425)" />
  <text
     x="92.319878"
     y="700.83893"
     font-size="14.00"
     id="text8984"
     style="font-size:58.33380127px;font-family:Times, serif;text-anchor:start;fill:#000000;stroke-width:4.16669989">nomo</text>
  <polygon
     points="52,-101 52,-121 88,-121 88,-101 "
     id="polygon8986"
     style="fill:none;stroke:#000000"
     transform="matrix(4.1667,0,0,4.1667,16.6668,1145.8425)" />
  <text
     x="272.5275"
     y="700.83893"
     font-size="14.00"
     id="text8988"
     style="font-size:58.33380127px;font-family:Times, serif;text-anchor:start;fill:#000000;stroke-width:4.16669989">aĵo</text>
  <polygon
     points="52,-101 52,-81 16,-81 16,-101 "
     id="polygon8990"
     style="fill:none;stroke:#000000"
     transform="matrix(4.1667,0,0,4.1667,16.6668,1145.8425)" />
  <text
     x="100.14527"
     y="784.17291"
     font-size="14.00"
     id="text8992"
     style="font-size:58.33380127px;font-family:Times, serif;text-anchor:start;fill:#000000;stroke-width:4.16669989">deilo</text>
  <polygon
     points="52,-81 52,-101 88,-101 88,-81 "
     id="polygon8994"
     style="fill:none;stroke:#000000"
     transform="matrix(4.1667,0,0,4.1667,16.6668,1145.8425)" />
  <polygon
     points="16,-61 16,-81 52,-81 52,-61 "
     id="polygon8996"
     style="fill:none;stroke:#000000"
     transform="matrix(4.1667,0,0,4.1667,16.6668,1145.8425)" />
  <text
     x="107.94286"
     y="867.5069"
     font-size="14.00"
     id="text8998"
     style="font-size:58.33380127px;font-family:Times, serif;text-anchor:start;fill:#000000;stroke-width:4.16669989">areo</text>
  <polygon
     points="52,-61 52,-81 88,-81 88,-61 "
     id="polygon9000"
     style="fill:none;stroke:#000000"
     transform="matrix(4.1667,0,0,4.1667,16.6668,1145.8425)" />
  <text
     x="293.75235"
     y="867.5069"
     font-size="14.00"
     id="text9002"
     style="font-size:58.33380127px;font-family:Times, serif;text-anchor:start;fill:#000000;stroke-width:4.16669989">5</text>
  <text
     x="857.29852"
     y="688.33881"
     font-size="14.00"
     id="text9061"
     style="font-size:58.33380127px;font-family:Times, serif;text-anchor:start;fill:#000000;stroke-width:4.16669989" />
  <text
     x="850.00677"
     y="855.00684"
     font-size="14.00"
     id="text9077"
     style="font-size:58.33380127px;font-family:Times, serif;text-anchor:start;fill:#000000;stroke-width:4.16669989"></text>
  <path
     d="m 308.3358,766.6728 c 0,0 89.15286,84.06935 225.39728,82.14475"
     id="path9106"
     inkscape:connector-curvature="0"
     style="fill:none;stroke:#000000;stroke-width:4.16669989"
     sodipodi:nodetypes="cc" />
  <polygon
     points="138.5263,-90.4259 138.4743,-97.4257 148.5,-94 "
     id="polygon9108"
     style="fill:#000000;stroke:#000000"
     transform="matrix(4.1667,0,0,4.1667,-53.3332,1239.2026)" />
  <polyline
     points="8,-247 96,-247 "
     id="polyline9113"
     style="fill:none;stroke:#000000"
     transform="matrix(4.1667,0,0,4.1667,16.6668,1145.8425)" />
  <text
     x="150.87059"
     y="92.500725"
     font-size="14.00"
     id="text9115"
     style="font-size:58.33380127px;font-family:Times, serif;text-anchor:start;fill:#000000;stroke-width:4.16669989">cxeno</text>
  <polygon
     points="8,-227 8,-247 60,-247 60,-227 "
     id="polygon9117"
     style="fill:none;stroke:#000000"
     transform="matrix(4.6595673,0,0,4.1637253,-13.024226,1145.2267)" />
  <text
     x="81.040192"
     y="175.83473"
     font-size="14.00"
     id="text9119"
     style="font-size:58.33380127px;font-family:Times, serif;text-anchor:start;fill:#000000;stroke-width:4.16669989">nomo</text>
  <polygon
     points="60,-227 60,-247 96,-247 96,-227 "
     id="polygon9121"
     style="fill:none;stroke:#000000"
     transform="matrix(4.1667,0,0,4.1667,16.6668,1145.8425)" />
  <text
     x="305.86111"
     y="175.83473"
     font-size="14.00"
     id="text9123"
     style="font-size:58.33380127px;font-family:Times, serif;text-anchor:start;fill:#000000;stroke-width:4.16669989">aĵo</text>
  <text
     x="88.865578"
     y="259.16873"
     font-size="14.00"
     id="text9127"
     style="font-size:58.33380127px;font-family:Times, serif;text-anchor:start;fill:#000000;stroke-width:4.16669989">deilo</text>
  <polygon
     points="8,-227 60,-227 60,-207 8,-207 "
     id="polygon9125"
     style="fill:none;stroke:#000000"
     transform="matrix(4.6595673,0,0,4.1637253,-13.024226,1145.2267)" />
  <polygon
     points="60,-207 60,-227 96,-227 96,-207 "
     id="polygon9129"
     style="fill:none;stroke:#000000"
     transform="matrix(4.1667,0,0,4.1667,16.6668,1145.8425)" />
  <polygon
     points="8,-207 60,-207 60,-187 8,-187 "
     id="polygon9131"
     style="fill:none;stroke:#000000"
     transform="matrix(4.6595673,0,0,4.1637253,-13.024226,1145.2267)" />
  <text
     x="96.663162"
     y="342.50272"
     font-size="14.00"
     id="text9133"
     style="font-size:58.33380127px;font-family:Times, serif;text-anchor:start;fill:#000000;stroke-width:4.16669989">areo</text>
  <polygon
     points="60,-187 60,-207 96,-207 96,-187 "
     id="polygon9135"
     style="fill:none;stroke:#000000"
     transform="matrix(4.1667,0,0,4.1667,16.6668,1145.8425)" />
  <text
     x="313.57043"
     y="342.50272"
     font-size="14.00"
     id="text9137"
     style="font-size:58.33380127px;font-family:Times, serif;text-anchor:start;fill:#000000;stroke-width:4.16669989">13</text>
  <polygon
     points="8,-187 60,-187 60,-167 8,-167 "
     id="polygon9139"
     style="fill:none;stroke:#000000"
     transform="matrix(4.6595673,0,0,4.1637253,-13.024226,1145.2267)" />
  <text
     x="37.141266"
     y="425.83673"
     font-size="14.00"
     id="text9141"
     style="font-size:58.33380127px;font-family:Times, serif;text-anchor:start;fill:#000000;stroke-width:4.16669989">enhaveco</text>
  <polygon
     points="60,-167 60,-187 96,-187 96,-167 "
     id="polygon9143"
     style="fill:none;stroke:#000000"
     transform="matrix(4.1667,0,0,4.1667,16.6668,1145.8425)" />
  <text
     x="313.57043"
     y="425.83673"
     font-size="14.00"
     id="text9145"
     style="font-size:58.33380127px;font-family:Times, serif;text-anchor:start;fill:#000000;stroke-width:4.16669989">13</text>
  <path
     sodipodi:nodetypes="cc"
     d="m 341.6694,241.6686 c 0,0 70.49229,-61.99742 191.55412,-59.88782"
     id="path9150"
     inkscape:connector-curvature="0"
     style="fill:none;stroke:#000000;stroke-width:4.16669989" />
  <polygon
     transform="matrix(4.1667,0,0,4.1667,-59.333204,1073.4032)"
     points="138.4682,-210.5921 138.5326,-217.5918 148.5,-214 "
     id="polygon9152"
     style="fill:#000000;stroke:#000000" />
  <polygon
     points="185.5,-244 185.5,-224 148.5,-224 148.5,-244 "
     id="polygon9007"
     style="fill:none;stroke:#000000"
     transform="matrix(5.9060078,0,0,4.1638695,-306.37096,1072.7064)" />
  <text
     x="589.64984"
     y="115.49323"
     font-size="14.00"
     id="text9009"
     style="font-size:58.33380127px;font-family:Times, serif;text-anchor:start;fill:#000000;stroke-width:4.16669989">indekso</text>
  <polygon
     points="185.5,-244 221.5,-244 221.5,-224 185.5,-224 "
     id="polygon9011"
     style="fill:none;stroke:#000000"
     transform="matrix(4.1667,0,0,4.1667,16.6668,1073.0009)" />
  <text
     x="828.78198"
     y="115.49323"
     font-size="14.00"
     id="text9013"
     style="font-size:58.33380127px;font-family:Times, serif;text-anchor:start;fill:#000000;stroke-width:4.16669989">aĵo</text>
  <polygon
     points="185.5,-224 185.5,-204 148.5,-204 148.5,-224 "
     id="polygon9015"
     style="fill:none;stroke:#000000"
     transform="matrix(5.9060078,0,0,4.1638695,-306.37096,1072.7064)" />
  <text
     x="665.34888"
     y="198.82722"
     font-size="14.00"
     id="text9017"
     style="font-size:58.33380127px;font-family:Times, serif;text-anchor:start;fill:#000000;stroke-width:4.16669989">0</text>
  <polygon
     points="185.5,-224 221.5,-224 221.5,-204 185.5,-204 "
     id="polygon9019"
     style="fill:none;stroke:#000000"
     transform="matrix(4.1667,0,0,4.1667,16.6668,1073.0009)" />
  <text
     x="852.95264"
     y="198.82722"
     font-size="14.00"
     id="text9021"
     style="font-size:58.33380127px;font-family:Times, serif;text-anchor:start;fill:#000000;stroke-width:4.16669989">s</text>
  <polygon
     points="185.5,-204 185.5,-184 148.5,-184 148.5,-204 "
     id="polygon9023"
     style="fill:none;stroke:#000000"
     transform="matrix(5.9060078,0,0,4.1638695,-306.37096,1072.7064)" />
  <text
     x="665.20306"
     y="282.16122"
     font-size="14.00"
     id="text9025"
     style="font-size:58.33380127px;font-family:Times, serif;text-anchor:start;fill:#000000;stroke-width:4.16669989">1</text>
  <polygon
     points="185.5,-204 221.5,-204 221.5,-184 185.5,-184 "
     id="polygon9027"
     style="fill:none;stroke:#000000"
     transform="matrix(4.1667,0,0,4.1667,16.6668,1073.0009)" />
  <text
     x="850.61932"
     y="282.16122"
     font-size="14.00"
     id="text9029"
     style="font-size:58.33380127px;font-family:Times, serif;text-anchor:start;fill:#000000;stroke-width:4.16669989">a</text>
  <polygon
     points="185.5,-184 185.5,-164 148.5,-164 148.5,-184 "
     id="polygon9031"
     style="fill:none;stroke:#000000"
     transform="matrix(5.9060078,0,0,4.1638695,-306.37096,1072.7064)" />
  <text
     x="665.20306"
     y="365.49521"
     font-size="14.00"
     id="text9033"
     style="font-size:58.33380127px;font-family:Times, serif;text-anchor:start;fill:#000000;stroke-width:4.16669989">2</text>
  <polygon
     points="185.5,-184 221.5,-184 221.5,-164 185.5,-164 "
     id="polygon9035"
     style="fill:none;stroke:#000000"
     transform="matrix(4.1667,0,0,4.1667,16.6668,1073.0009)" />
  <text
     x="856.54016"
     y="365.49521"
     font-size="14.00"
     id="text9037"
     style="font-size:58.33380127px;font-family:Times, serif;text-anchor:start;fill:#000000;stroke-width:4.16669989">l</text>
  <polygon
     points="185.5,-164 185.5,-144 148.5,-144 148.5,-164 "
     id="polygon9039"
     style="fill:none;stroke:#000000"
     transform="matrix(5.9060078,0,0,4.1638695,-306.37096,1072.7064)" />
  <text
     x="666.07806"
     y="448.82922"
     font-size="14.00"
     id="text9041"
     style="font-size:58.33380127px;font-family:Times, serif;text-anchor:start;fill:#000000;stroke-width:4.16669989">3</text>
  <polygon
     points="185.5,-164 221.5,-164 221.5,-144 185.5,-144 "
     id="polygon9043"
     style="fill:none;stroke:#000000"
     transform="matrix(4.1667,0,0,4.1667,16.6668,1073.0009)" />
  <text
     x="850.35681"
     y="448.82922"
     font-size="14.00"
     id="text9045"
     style="font-size:58.33380127px;font-family:Times, serif;text-anchor:start;fill:#000000;stroke-width:4.16669989">u</text>
  <polygon
     points="185.5,-144 185.5,-124 148.5,-124 148.5,-144 "
     id="polygon9047"
     style="fill:none;stroke:#000000"
     transform="matrix(5.9060078,0,0,4.1638695,-306.37096,1072.7064)" />
  <text
     x="665.81555"
     y="532.16321"
     font-size="14.00"
     id="text9049"
     style="font-size:58.33380127px;font-family:Times, serif;text-anchor:start;fill:#000000;stroke-width:4.16669989">4</text>
  <polygon
     points="185.5,-144 221.5,-144 221.5,-124 185.5,-124 "
     id="polygon9051"
     style="fill:none;stroke:#000000"
     transform="matrix(4.1667,0,0,4.1667,16.6668,1073.0009)" />
  <text
     x="856.07349"
     y="532.16321"
     font-size="14.00"
     id="text9053"
     style="font-size:58.33380127px;font-family:Times, serif;text-anchor:start;fill:#000000;stroke-width:4.16669989">t</text>
  <polygon
     points="185.5,-124 185.5,-104 148.5,-104 148.5,-124 "
     id="polygon9055"
     style="fill:none;stroke:#000000"
     transform="matrix(5.9060078,0,0,4.1638695,-306.37096,1072.7064)" />
  <text
     x="666.22388"
     y="615.49719"
     font-size="14.00"
     id="text9057"
     style="font-size:58.33380127px;font-family:Times, serif;text-anchor:start;fill:#000000;stroke-width:4.16669989">5</text>
  <polygon
     points="185.5,-124 221.5,-124 221.5,-104 185.5,-104 "
     id="polygon9059"
     style="fill:none;stroke:#000000"
     transform="matrix(4.1667,0,0,4.1667,16.6668,1073.0009)" />
  <polygon
     points="185.5,-104 185.5,-84 148.5,-84 148.5,-104 "
     id="polygon9063"
     style="fill:none;stroke:#000000"
     transform="matrix(5.9060078,0,0,4.1638695,-306.37096,1072.7064)" />
  <text
     x="665.29059"
     y="698.83124"
     font-size="14.00"
     id="text9065"
     style="font-size:58.33380127px;font-family:Times, serif;text-anchor:start;fill:#000000;stroke-width:4.16669989">6</text>
  <polygon
     points="185.5,-104 221.5,-104 221.5,-84 185.5,-84 "
     id="polygon9067"
     style="fill:none;stroke:#000000"
     transform="matrix(4.1667,0,0,4.1667,16.6668,1073.0009)" />
  <text
     x="849.97766"
     y="698.83124"
     font-size="14.00"
     id="text9069"
     style="font-size:58.33380127px;font-family:Times, serif;text-anchor:start;fill:#000000;stroke-width:4.16669989">n</text>
  <polygon
     points="185.5,-84 185.5,-64 148.5,-64 148.5,-84 "
     id="polygon9071"
     style="fill:none;stroke:#000000"
     transform="matrix(5.9060078,0,0,4.1638695,-306.37096,1072.7064)" />
  <text
     x="666.25305"
     y="782.16522"
     font-size="14.00"
     id="text9073"
     style="font-size:58.33380127px;font-family:Times, serif;text-anchor:start;fill:#000000;stroke-width:4.16669989">7</text>
  <polygon
     points="185.5,-84 221.5,-84 221.5,-64 185.5,-64 "
     id="polygon9075"
     style="fill:none;stroke:#000000"
     transform="matrix(4.1667,0,0,4.1667,16.6668,1073.0009)" />
  <polygon
     points="185.5,-64 185.5,-44 148.5,-44 148.5,-64 "
     id="polygon9079"
     style="fill:none;stroke:#000000"
     transform="matrix(5.9060078,0,0,4.1638695,-306.37096,1072.7064)" />
  <text
     x="665.3197"
     y="865.49921"
     font-size="14.00"
     id="text9081"
     style="font-size:58.33380127px;font-family:Times, serif;text-anchor:start;fill:#000000;stroke-width:4.16669989">8</text>
  <polygon
     points="185.5,-64 221.5,-64 221.5,-44 185.5,-44 "
     id="polygon9083"
     style="fill:none;stroke:#000000"
     transform="matrix(4.1667,0,0,4.1667,16.6668,1073.0009)" />
  <text
     x="841.51923"
     y="865.49921"
     font-size="14.00"
     id="text9085"
     style="font-size:58.33380127px;font-family:Times, serif;text-anchor:start;fill:#000000;stroke-width:4.16669989">m</text>
  <polygon
     points="185.5,-44 185.5,-24 148.5,-24 148.5,-44 "
     id="polygon9087"
     style="fill:none;stroke:#000000"
     transform="matrix(5.9060078,0,0,4.1638695,-306.37096,1072.7064)" />
  <text
     x="665.66974"
     y="948.83331"
     font-size="14.00"
     id="text9089"
     style="font-size:58.33380127px;font-family:Times, serif;text-anchor:start;fill:#000000;stroke-width:4.16669989">9</text>
  <polygon
     points="185.5,-44 221.5,-44 221.5,-24 185.5,-24 "
     id="polygon9091"
     style="fill:none;stroke:#000000"
     transform="matrix(4.1667,0,0,4.1667,16.6668,1073.0009)" />
  <text
     x="850.03595"
     y="948.83331"
     font-size="14.00"
     id="text9093"
     style="font-size:58.33380127px;font-family:Times, serif;text-anchor:start;fill:#000000;stroke-width:4.16669989">o</text>
  <polygon
     points="185.5,-24 185.5,-4 148.5,-4 148.5,-24 "
     id="polygon9095"
     style="fill:none;stroke:#000000"
     transform="matrix(5.9060078,0,0,4.1638695,-306.37096,1072.7064)" />
  <text
     x="648.22791"
     y="1032.1672"
     font-size="14.00"
     id="text9097"
     style="font-size:58.33380127px;font-family:Times, serif;text-anchor:start;fill:#000000;stroke-width:4.16669989">10</text>
  <polygon
     points="185.5,-24 221.5,-24 221.5,-4 185.5,-4 "
     id="polygon9099"
     style="fill:none;stroke:#000000"
     transform="matrix(4.1667,0,0,4.1667,16.6668,1073.0009)" />
  <text
     x="849.97766"
     y="1032.1672"
     font-size="14.00"
     id="text9101"
     style="font-size:58.33380127px;font-family:Times, serif;text-anchor:start;fill:#000000;stroke-width:4.16669989">n</text>
  <polygon
     transform="matrix(5.9060078,0,0,4.1638695,-306.37096,1156.2796)"
     style="fill:none;stroke:#000000"
     id="polygon9407"
     points="148.5,-24 185.5,-24 185.5,-4 148.5,-4 " />
  <text
     style="font-size:58.33380127px;font-family:Times, serif;text-anchor:start;fill:#000000;stroke-width:4.16669989"
     id="text9409"
     font-size="14.00"
     y="1115.7971"
     x="650.61963">11</text>
  <polygon
     transform="matrix(4.1667,0,0,4.1667,16.6668,1156.6309)"
     style="fill:none;stroke:#000000"
     id="polygon9411"
     points="185.5,-4 185.5,-24 221.5,-24 221.5,-4 " />
  <text
     style="font-size:58.33380127px;font-family:Times, serif;text-anchor:start;fill:#000000;stroke-width:4.16669989"
     id="text9413"
     font-size="14.00"
     y="1115.7971"
     x="849.48181">d</text>
  <text
     style="font-size:58.33380127px;font-family:Times, serif;text-anchor:start;fill:#000000;stroke-width:4.16669989"
     id="text9415"
     font-size="14.00"
     y="612.83124"
     x="850.03595">o</text>
  <polygon
     points="148.5,-24 185.5,-24 185.5,-4 148.5,-4 "
     id="polygon9417"
     style="fill:none;stroke:#000000"
     transform="matrix(5.9060078,0,0,4.1638695,-306.37096,1238.9332)" />
  <text
     x="648.25708"
     y="1198.5068"
     font-size="14.00"
     id="text9419"
     style="font-size:58.33380127px;font-family:Times, serif;text-anchor:start;fill:#000000;stroke-width:4.16669989">12</text>
  <polygon
     points="185.5,-4 185.5,-24 221.5,-24 221.5,-4 "
     id="polygon9421"
     style="fill:none;stroke:#000000"
     transform="matrix(4.1667,0,0,4.1667,16.6668,1239.3407)" />
  <text
     x="850.03595"
     y="1198.5068"
     font-size="14.00"
     id="text9423"
     style="font-size:58.33380127px;font-family:Times, serif;text-anchor:start;fill:#000000;stroke-width:4.16669989">o</text>
</svg>
