<?xml version="1.0" encoding="UTF-8" standalone="no"?>
<!-- Generated by graphviz version 2.40.1 (20161225.0304)
 -->

<!-- Title: %3 Pages: 1 -->

<svg
   xmlns:dc="http://purl.org/dc/elements/1.1/"
   xmlns:cc="http://creativecommons.org/ns#"
   xmlns:rdf="http://www.w3.org/1999/02/22-rdf-syntax-ns#"
   xmlns:svg="http://www.w3.org/2000/svg"
   xmlns="http://www.w3.org/2000/svg"
   xmlns:sodipodi="http://sodipodi.sourceforge.net/DTD/sodipodi-0.dtd"
   xmlns:inkscape="http://www.inkscape.org/namespaces/inkscape"
   viewBox="0.00 0.00 1000.00 1000.00"
   version="1.1"
   id="svg4816"
   sodipodi:docname="trpl04-02.svg"
   inkscape:version="0.92.1 r15371">
  <metadata
     id="metadata4822">
    <rdf:RDF>
      <cc:Work
         rdf:about="">
        <dc:format>image/svg+xml</dc:format>
        <dc:type
           rdf:resource="http://purl.org/dc/dcmitype/StillImage" />
      </cc:Work>
    </rdf:RDF>
  </metadata>
  <defs
     id="defs4820" />
  <sodipodi:namedview
     pagecolor="#ffffff"
     bordercolor="#666666"
     borderopacity="1"
     objecttolerance="10"
     gridtolerance="10"
     guidetolerance="10"
     inkscape:pageopacity="0"
     inkscape:pageshadow="2"
     inkscape:window-width="1024"
     inkscape:window-height="555"
     id="namedview4818"
     showgrid="false"
     inkscape:zoom="0.236"
     inkscape:cx="610.07027"
     inkscape:cy="582.85487"
     inkscape:window-x="0"
     inkscape:window-y="0"
     inkscape:window-maximized="1"
     inkscape:current-layer="svg4816" />
  <polygon
     style="fill:#ffffff"
     id="polygon4674"
     points="233,-238 233,4 -4,4 -4,-238 "
     stroke="transparent"
     transform="matrix(4.1667,0,0,4.1667,16.6668,991.6746)" />
  <g
     id="g7609">
    <g
       transform="translate(15.660785,-17.908302)"
       id="g5312">
      <path
         sodipodi:nodetypes="cc"
         d="m 341.6694,241.6686 c 0,0 19.9933,221.20177 171.83742,257.49248"
         id="path4766"
         inkscape:connector-curvature="0"
         style="fill:none;stroke:#000000;stroke-width:4.16669989" />
      <polygon
         points="148.5,-117 138.1553,-114.7115 138.986,-121.6621 "
         id="polygon4768"
         style="fill:#000000;stroke:#000000"
         transform="matrix(4.1667,0,0,4.1667,-63.3332,991.6746)" />
      <g
         class="edge"
         id="edge2"
         transform="matrix(4.1667,0,0,4.1667,16.6668,991.6746)">
        <title
           id="title4808">table3:c-&gt;table1:pointee</title>
        <path
           style="fill:none;stroke:#000000"
           inkscape:connector-curvature="0"
           id="path4810"
           d="m 78,-54 c 0,0 4.798354,-53.088 41.24065,-61.7977"
           sodipodi:nodetypes="cc" />
        <polygon
           style="fill:#000000;stroke:#000000"
           id="polygon4812"
           points="138.1553,-119.2885 148.5,-117 138.986,-112.3379 "
           transform="translate(-19.199847)" />
      </g>
      <g
         id="g5156"
         transform="translate(999.68822)">
        <polyline
           transform="matrix(4.1667,0,0,4.1667,-983.02142,633.3384)"
           style="fill:none;stroke:#000000"
           id="polyline162"
           points="8,-124 96,-124 " />
        <text
           style="font-size:58.33380127px;font-family:Times, serif;text-anchor:start;fill:#000000;stroke-width:4.16669989"
           id="text164"
           font-size="14.00"
           y="92.500725"
           x="-838.94586">sento</text>
        <text
           style="font-size:58.33380127px;font-family:Times, serif;text-anchor:start;fill:#000000;stroke-width:4.16669989"
           id="text168"
           font-size="14.00"
           y="175.83473"
           x="-917.77374">nomo</text>
        <g
           transform="translate(-999.68822,3.226819e-6)"
           id="g4029">
          <polygon
             points="8,-124 60,-124 60,-104 8,-104 "
             id="polygon166"
             style="fill:none;stroke:#000000"
             transform="matrix(4.5632062,0,0,4.1642939,-7.2198156,633.13629)" />
          <polygon
             points="60,-104 60,-124 96,-124 96,-104 "
             id="polygon170"
             style="fill:none;stroke:#000000"
             transform="matrix(4.1667,0,0,4.1667,16.6668,633.3384)" />
        </g>
        <text
           style="font-size:58.33380127px;font-family:Times, serif;text-anchor:start;fill:#000000;stroke-width:4.16669989"
           id="text172"
           font-size="14.00"
           y="175.83473"
           x="-693.82709">aĵo</text>
        <polygon
           transform="matrix(4.5632062,0,0,4.1642939,-1006.908,633.13629)"
           style="fill:none;stroke:#000000"
           id="polygon174"
           points="8,-104 60,-104 60,-84 8,-84 " />
        <text
           style="font-size:58.33380127px;font-family:Times, serif;text-anchor:start;fill:#000000;stroke-width:4.16669989"
           id="text176"
           font-size="14.00"
           y="259.16873"
           x="-909.94836">deilo</text>
        <polygon
           transform="matrix(4.1667,0,0,4.1667,-983.02142,633.3384)"
           style="fill:none;stroke:#000000"
           id="polygon178"
           points="60,-84 60,-104 96,-104 96,-84 " />
        <polygon
           transform="matrix(4.5632062,0,0,4.1642939,-1006.908,633.13629)"
           style="fill:none;stroke:#000000"
           id="polygon180"
           points="8,-84 60,-84 60,-64 8,-64 " />
        <text
           style="font-size:58.33380127px;font-family:Times, serif;text-anchor:start;fill:#000000;stroke-width:4.16669989"
           id="text182"
           font-size="14.00"
           y="342.50272"
           x="-902.15076">areo</text>
        <polygon
           transform="matrix(4.1667,0,0,4.1667,-983.02142,633.3384)"
           style="fill:none;stroke:#000000"
           id="polygon184"
           points="60,-64 60,-84 96,-84 96,-64 " />
        <text
           style="font-size:58.33380127px;font-family:Times, serif;text-anchor:start;fill:#000000;stroke-width:4.16669989"
           id="text186"
           font-size="14.00"
           y="342.50272"
           x="-671.87311">3</text>
        <polygon
           transform="matrix(4.5632062,0,0,4.1642939,-1006.908,633.13629)"
           style="fill:none;stroke:#000000"
           id="polygon188"
           points="60,-44 8,-44 8,-64 60,-64 " />
        <text
           style="font-size:58.33380127px;font-family:Times, serif;text-anchor:start;fill:#000000;stroke-width:4.16669989"
           id="text190"
           font-size="14.00"
           y="425.83673"
           x="-961.67267">enhaveco</text>
        <polygon
           transform="matrix(4.1667,0,0,4.1667,-983.02142,633.3384)"
           style="fill:none;stroke:#000000"
           id="polygon192"
           points="60,-44 60,-64 96,-64 96,-44 " />
        <text
           style="font-size:58.33380127px;font-family:Times, serif;text-anchor:start;fill:#000000;stroke-width:4.16669989"
           id="text194"
           font-size="14.00"
           y="425.83673"
           x="-671.87311">3</text>
      </g>
      <g
         id="g5212"
         transform="translate(999.68822,262.5021)">
        <polygon
           transform="matrix(6.2886495,0,0,4.1588056,-1377.1167,632.83316)"
           style="fill:none;stroke:#000000"
           id="polygon199"
           points="148.5,-104 148.5,-124 185.5,-124 185.5,-104 " />
        <text
           style="font-size:58.33380127px;font-family:Times, serif;text-anchor:start;fill:#000000;stroke-width:4.16669989"
           id="text201"
           font-size="14.00"
           y="175.83473"
           x="-417.19476">indekso</text>
        <polygon
           transform="matrix(4.1667,0,0,4.1667,-983.02142,633.3384)"
           style="fill:none;stroke:#000000"
           id="polygon203"
           points="221.5,-104 185.5,-104 185.5,-124 221.5,-124 " />
        <text
           style="font-size:58.33380127px;font-family:Times, serif;text-anchor:start;fill:#000000;stroke-width:4.16669989"
           id="text205"
           font-size="14.00"
           y="175.83473"
           x="-170.90625">aĵo</text>
        <polygon
           transform="matrix(6.2886495,0,0,4.1588056,-1377.1167,632.83316)"
           style="fill:none;stroke:#000000"
           id="polygon207"
           points="148.5,-84 148.5,-104 185.5,-104 185.5,-84 " />
        <text
           style="font-size:58.33380127px;font-family:Times, serif;text-anchor:start;fill:#000000;stroke-width:4.16669989"
           id="text209"
           font-size="14.00"
           y="259.16873"
           x="-341.49573">0</text>
        <polygon
           transform="matrix(4.1667,0,0,4.1667,-983.02142,633.3384)"
           style="fill:none;stroke:#000000"
           id="polygon211"
           points="221.5,-84 185.5,-84 185.5,-104 221.5,-104 " />
        <text
           style="font-size:58.33380127px;font-family:Times, serif;text-anchor:start;fill:#000000;stroke-width:4.16669989"
           id="text213"
           font-size="14.00"
           y="259.16873"
           x="-149.06891">a</text>
        <polygon
           transform="matrix(6.2886495,0,0,4.1588056,-1377.1167,632.83316)"
           style="fill:none;stroke:#000000"
           id="polygon215"
           points="148.5,-64 148.5,-84 185.5,-84 185.5,-64 " />
        <text
           style="font-size:58.33380127px;font-family:Times, serif;text-anchor:start;fill:#000000;stroke-width:4.16669989"
           id="text217"
           font-size="14.00"
           y="342.50272"
           x="-341.64154">1</text>
        <polygon
           transform="matrix(4.1667,0,0,4.1667,-983.02142,633.3384)"
           style="fill:none;stroke:#000000"
           id="polygon219"
           points="221.5,-64 185.5,-64 185.5,-84 221.5,-84 " />
        <text
           style="font-size:58.33380127px;font-family:Times, serif;text-anchor:start;fill:#000000;stroke-width:4.16669989"
           id="text221"
           font-size="14.00"
           y="342.50272"
           x="-158.16901">m</text>
        <polygon
           transform="matrix(6.2886495,0,0,4.1588056,-1377.1167,632.83316)"
           style="fill:none;stroke:#000000"
           id="polygon223"
           points="148.5,-44 148.5,-64 185.5,-64 185.5,-44 " />
        <text
           style="font-size:58.33380127px;font-family:Times, serif;text-anchor:start;fill:#000000;stroke-width:4.16669989"
           id="text225"
           font-size="14.00"
           y="425.83673"
           x="-341.64154">2</text>
        <polygon
           transform="matrix(4.1667,0,0,4.1667,-983.02142,633.3384)"
           style="fill:none;stroke:#000000"
           id="polygon227"
           points="221.5,-44 185.5,-44 185.5,-64 221.5,-64 " />
        <text
           style="font-size:58.33380127px;font-family:Times, serif;text-anchor:start;fill:#000000;stroke-width:4.16669989"
           id="text229"
           font-size="14.00"
           y="425.83673"
           x="-149.65228">o</text>
      </g>
      <polyline
         transform="matrix(4.1667,0,0,4.1667,16.6668,1158.3426)"
         style="fill:none;stroke:#000000"
         id="polyline5158"
         points="8,-124 96,-124 " />
      <text
         style="font-size:58.33380127px;font-family:Times, serif;text-anchor:start;fill:#000000;stroke-width:4.16669989"
         id="text5160"
         font-size="14.00"
         y="617.50494"
         x="160.74236">pasio</text>
      <text
         style="font-size:58.33380127px;font-family:Times, serif;text-anchor:start;fill:#000000;stroke-width:4.16669989"
         id="text5162"
         font-size="14.00"
         y="700.83893"
         x="81.914474">nomo</text>
      <g
         transform="translate(0,525.0042)"
         id="g5168">
        <polygon
           points="8,-104 8,-124 60,-124 60,-104 "
           id="polygon5164"
           style="fill:none;stroke:#000000"
           transform="matrix(4.5632062,0,0,4.1642939,-7.2198156,633.13629)" />
        <polygon
           points="96,-104 60,-104 60,-124 96,-124 "
           id="polygon5166"
           style="fill:none;stroke:#000000"
           transform="matrix(4.1667,0,0,4.1667,16.6668,633.3384)" />
      </g>
      <text
         style="font-size:58.33380127px;font-family:Times, serif;text-anchor:start;fill:#000000;stroke-width:4.16669989"
         id="text5170"
         font-size="14.00"
         y="700.83893"
         x="305.86115">aĵo</text>
      <polygon
         transform="matrix(4.5632062,0,0,4.1642939,-7.21978,1158.1405)"
         style="fill:none;stroke:#000000"
         id="polygon5172"
         points="8,-84 8,-104 60,-104 60,-84 " />
      <text
         style="font-size:58.33380127px;font-family:Times, serif;text-anchor:start;fill:#000000;stroke-width:4.16669989"
         id="text5174"
         font-size="14.00"
         y="784.17291"
         x="89.739853">deilo</text>
      <polygon
         transform="matrix(4.1667,0,0,4.1667,16.6668,1158.3426)"
         style="fill:none;stroke:#000000"
         id="polygon5176"
         points="96,-84 60,-84 60,-104 96,-104 " />
      <polygon
         transform="matrix(4.5632062,0,0,4.1642939,-7.21978,1158.1405)"
         style="fill:none;stroke:#000000"
         id="polygon5178"
         points="8,-64 8,-84 60,-84 60,-64 " />
      <text
         style="font-size:58.33380127px;font-family:Times, serif;text-anchor:start;fill:#000000;stroke-width:4.16669989"
         id="text5180"
         font-size="14.00"
         y="867.5069"
         x="97.53746">areo</text>
      <polygon
         transform="matrix(4.1667,0,0,4.1667,16.6668,1158.3426)"
         style="fill:none;stroke:#000000"
         id="polygon5182"
         points="96,-64 60,-64 60,-84 96,-84 " />
      <text
         style="font-size:58.33380127px;font-family:Times, serif;text-anchor:start;fill:#000000;stroke-width:4.16669989"
         id="text5184"
         font-size="14.00"
         y="867.5069"
         x="327.81512">3</text>
      <polygon
         transform="matrix(4.5632062,0,0,4.1642939,-7.21978,1158.1405)"
         style="fill:none;stroke:#000000"
         id="polygon5186"
         points="60,-64 60,-44 8,-44 8,-64 " />
      <text
         style="font-size:58.33380127px;font-family:Times, serif;text-anchor:start;fill:#000000;stroke-width:4.16669989"
         id="text5188"
         font-size="14.00"
         y="950.84094"
         x="38.015553">enhaveco</text>
      <polygon
         transform="matrix(4.1667,0,0,4.1667,16.6668,1158.3426)"
         style="fill:none;stroke:#000000"
         id="polygon5190"
         points="96,-44 60,-44 60,-64 96,-64 " />
      <text
         style="font-size:58.33380127px;font-family:Times, serif;text-anchor:start;fill:#000000;stroke-width:4.16669989"
         id="text5192"
         font-size="14.00"
         y="950.84094"
         x="327.81512">3</text>
    </g>
  </g>
</svg>
