<?xml version="1.0" encoding="UTF-8" standalone="no"?>
<!-- Generated by graphviz version 2.40.1 (20161225.0304)
 -->

<!-- Title: %3 Pages: 1 -->

<svg
   xmlns:dc="http://purl.org/dc/elements/1.1/"
   xmlns:cc="http://creativecommons.org/ns#"
   xmlns:rdf="http://www.w3.org/1999/02/22-rdf-syntax-ns#"
   xmlns:svg="http://www.w3.org/2000/svg"
   xmlns="http://www.w3.org/2000/svg"
   xmlns:sodipodi="http://sodipodi.sourceforge.net/DTD/sodipodi-0.dtd"
   xmlns:inkscape="http://www.inkscape.org/namespaces/inkscape"
   viewBox="0.00 0.00 1500.00 650.00"
   version="1.1"
   id="svg8479"
   sodipodi:docname="trpl04-05.svg"
   inkscape:version="0.92.1 r15371">
  <metadata
     id="metadata8485">
    <rdf:RDF>
      <cc:Work
         rdf:about="">
        <dc:format>image/svg+xml</dc:format>
        <dc:type
           rdf:resource="http://purl.org/dc/dcmitype/StillImage" />
      </cc:Work>
    </rdf:RDF>
  </metadata>
  <defs
     id="defs8483" />
  <sodipodi:namedview
     pagecolor="#ffffff"
     bordercolor="#666666"
     borderopacity="1"
     objecttolerance="10"
     gridtolerance="10"
     guidetolerance="10"
     inkscape:pageopacity="0"
     inkscape:pageshadow="2"
     inkscape:window-width="1024"
     inkscape:window-height="555"
     id="namedview8481"
     showgrid="false"
     inkscape:zoom="0.19893271"
     inkscape:cx="1163.9877"
     inkscape:cy="678.5195"
     inkscape:window-x="0"
     inkscape:window-y="0"
     inkscape:window-maximized="1"
     inkscape:current-layer="svg8479" />
  <polygon
     style="fill:#ffffff"
     id="polygon8353"
     points="357,-152 357,4 -4,4 -4,-152 "
     stroke="transparent"
     transform="matrix(4.1667,0,0,4.1667,16.6668,633.3384)" />
  <g
     id="g8740"
     transform="translate(-13.587432)">
    <polyline
       transform="matrix(4.1667,0,0,4.1667,16.6668,633.3384)"
       style="fill:none;stroke:#000000"
       id="polyline8357"
       points="8,-124 80,-124 " />
    <text
       style="font-size:58.33380127px;font-family:Times, serif;text-anchor:start;fill:#000000;stroke-width:4.16669989"
       id="text8359"
       font-size="14.00"
       y="92.500725"
       x="130.53424">cxeno</text>
    <text
       style="font-size:58.33380127px;font-family:Times, serif;text-anchor:start;fill:#000000;stroke-width:4.16669989"
       id="text8363"
       font-size="14.00"
       y="175.83473"
       x="58.986279">nomo</text>
    <polygon
       transform="matrix(4.1667,0,0,4.1667,16.6668,633.3384)"
       style="fill:none;stroke:#000000"
       id="polygon8361"
       points="8,-124 44,-124 44,-104 8,-104 " />
    <polygon
       transform="matrix(4.1667,0,0,4.1667,16.6668,633.3384)"
       style="fill:none;stroke:#000000"
       id="polygon8365"
       points="80,-104 44,-104 44,-124 80,-124 " />
    <text
       style="font-size:58.33380127px;font-family:Times, serif;text-anchor:start;fill:#000000;stroke-width:4.16669989"
       id="text8367"
       font-size="14.00"
       y="175.83473"
       x="239.19391">aĵo</text>
    <polygon
       transform="matrix(4.1667,0,0,4.1667,16.6668,633.3384)"
       style="fill:none;stroke:#000000"
       id="polygon8369"
       points="8,-84 8,-104 44,-104 44,-84 " />
    <text
       style="font-size:58.33380127px;font-family:Times, serif;text-anchor:start;fill:#000000;stroke-width:4.16669989"
       id="text8371"
       font-size="14.00"
       y="259.16873"
       x="69.471596">deilo</text>
    <polygon
       transform="matrix(4.1667,0,0,4.1667,16.6668,633.3384)"
       style="fill:none;stroke:#000000"
       id="polygon8373"
       points="44,-104 80,-104 80,-84 44,-84 " />
    <g
       transform="matrix(4.1667,0,0,4.1667,16.6668,633.3384)"
       id="edge2"
       class="edge">
      <title
         id="title8413">table0:c-&gt;table1:borrowee</title>
      <path
         d="m 62,-94 c 0,0 31.1184,0 59.9514,0"
         id="path8415"
         inkscape:connector-curvature="0"
         style="fill:none;stroke:#000000" />
      <polygon
         points="122,-97.5001 132,-94 122,-90.5001 "
         id="polygon8417"
         style="fill:#000000;stroke:#000000" />
    </g>
    <g
       transform="translate(521.92283,3.2268188e-6)"
       id="g4904">
      <polyline
         points="8,-124 96,-124 "
         id="polyline162"
         style="fill:none;stroke:#000000"
         transform="matrix(4.1667,0,0,4.1667,32.327585,633.3384)" />
      <text
         x="176.40314"
         y="92.500725"
         font-size="14.00"
         id="text164"
         style="font-size:58.33380127px;font-family:Times, serif;text-anchor:start;fill:#000000;stroke-width:4.16669989">senso</text>
      <text
         x="97.575256"
         y="175.83473"
         font-size="14.00"
         id="text168"
         style="font-size:58.33380127px;font-family:Times, serif;text-anchor:start;fill:#000000;stroke-width:4.16669989">nomo</text>
      <g
         id="g4029"
         transform="translate(15.660785)">
        <polygon
           transform="matrix(4.5632062,0,0,4.1642939,-7.2198156,633.13629)"
           style="fill:none;stroke:#000000"
           id="polygon166"
           points="60,-104 8,-104 8,-124 60,-124 " />
        <polygon
           transform="matrix(4.1667,0,0,4.1667,16.6668,633.3384)"
           style="fill:none;stroke:#000000"
           id="polygon170"
           points="96,-124 96,-104 60,-104 60,-124 " />
      </g>
      <text
         x="321.52191"
         y="175.83473"
         font-size="14.00"
         id="text172"
         style="font-size:58.33380127px;font-family:Times, serif;text-anchor:start;fill:#000000;stroke-width:4.16669989">aĵo</text>
      <polygon
         points="60,-84 8,-84 8,-104 60,-104 "
         id="polygon174"
         style="fill:none;stroke:#000000"
         transform="matrix(4.5632062,0,0,4.1642939,8.4409694,633.13629)" />
      <text
         x="105.40064"
         y="259.16873"
         font-size="14.00"
         id="text176"
         style="font-size:58.33380127px;font-family:Times, serif;text-anchor:start;fill:#000000;stroke-width:4.16669989">deilo</text>
      <polygon
         points="96,-104 96,-84 60,-84 60,-104 "
         id="polygon178"
         style="fill:none;stroke:#000000"
         transform="matrix(4.1667,0,0,4.1667,32.327585,633.3384)" />
      <polygon
         points="60,-64 8,-64 8,-84 60,-84 "
         id="polygon180"
         style="fill:none;stroke:#000000"
         transform="matrix(4.5632062,0,0,4.1642939,8.4409694,633.13629)" />
      <text
         x="113.19823"
         y="342.50272"
         font-size="14.00"
         id="text182"
         style="font-size:58.33380127px;font-family:Times, serif;text-anchor:start;fill:#000000;stroke-width:4.16669989">areo</text>
      <polygon
         points="96,-84 96,-64 60,-64 60,-84 "
         id="polygon184"
         style="fill:none;stroke:#000000"
         transform="matrix(4.1667,0,0,4.1667,32.327585,633.3384)" />
      <text
         x="343.47592"
         y="342.50272"
         font-size="14.00"
         id="text186"
         style="font-size:58.33380127px;font-family:Times, serif;text-anchor:start;fill:#000000;stroke-width:4.16669989">3</text>
      <polygon
         points="8,-64 60,-64 60,-44 8,-44 "
         id="polygon188"
         style="fill:none;stroke:#000000"
         transform="matrix(4.5632062,0,0,4.1642939,8.4409694,633.13629)" />
      <text
         x="53.676338"
         y="425.83673"
         font-size="14.00"
         id="text190"
         style="font-size:58.33380127px;font-family:Times, serif;text-anchor:start;fill:#000000;stroke-width:4.16669989">enhaveco</text>
      <polygon
         points="96,-64 96,-44 60,-44 60,-64 "
         id="polygon192"
         style="fill:none;stroke:#000000"
         transform="matrix(4.1667,0,0,4.1667,32.327585,633.3384)" />
      <text
         x="343.47592"
         y="425.83673"
         font-size="14.00"
         id="text194"
         style="font-size:58.33380127px;font-family:Times, serif;text-anchor:start;fill:#000000;stroke-width:4.16669989">3</text>
      <polygon
         points="185.5,-104 148.5,-104 148.5,-124 185.5,-124 "
         id="polygon199"
         style="fill:none;stroke:#000000"
         transform="matrix(6.2886495,0,0,4.1588056,-361.76771,632.83316)" />
      <text
         x="598.15424"
         y="175.83473"
         font-size="14.00"
         id="text201"
         style="font-size:58.33380127px;font-family:Times, serif;text-anchor:start;fill:#000000;stroke-width:4.16669989">indekso</text>
      <polygon
         points="221.5,-124 221.5,-104 185.5,-104 185.5,-124 "
         id="polygon203"
         style="fill:none;stroke:#000000"
         transform="matrix(4.1667,0,0,4.1667,32.327585,633.3384)" />
      <text
         x="844.44275"
         y="175.83473"
         font-size="14.00"
         id="text205"
         style="font-size:58.33380127px;font-family:Times, serif;text-anchor:start;fill:#000000;stroke-width:4.16669989">aĵo</text>
      <polygon
         points="185.5,-84 148.5,-84 148.5,-104 185.5,-104 "
         id="polygon207"
         style="fill:none;stroke:#000000"
         transform="matrix(6.2886495,0,0,4.1588056,-361.76771,632.83316)" />
      <text
         x="673.85327"
         y="259.16873"
         font-size="14.00"
         id="text209"
         style="font-size:58.33380127px;font-family:Times, serif;text-anchor:start;fill:#000000;stroke-width:4.16669989">0</text>
      <polygon
         points="221.5,-104 221.5,-84 185.5,-84 185.5,-104 "
         id="polygon211"
         style="fill:none;stroke:#000000"
         transform="matrix(4.1667,0,0,4.1667,32.327585,633.3384)" />
      <text
         x="866.28009"
         y="259.16873"
         font-size="14.00"
         id="text213"
         style="font-size:58.33380127px;font-family:Times, serif;text-anchor:start;fill:#000000;stroke-width:4.16669989">a</text>
      <polygon
         points="185.5,-64 148.5,-64 148.5,-84 185.5,-84 "
         id="polygon215"
         style="fill:none;stroke:#000000"
         transform="matrix(6.2886495,0,0,4.1588056,-361.76771,632.83316)" />
      <text
         x="673.70746"
         y="342.50272"
         font-size="14.00"
         id="text217"
         style="font-size:58.33380127px;font-family:Times, serif;text-anchor:start;fill:#000000;stroke-width:4.16669989">1</text>
      <polygon
         points="221.5,-84 221.5,-64 185.5,-64 185.5,-84 "
         id="polygon219"
         style="fill:none;stroke:#000000"
         transform="matrix(4.1667,0,0,4.1667,32.327585,633.3384)" />
      <text
         x="857.17999"
         y="342.50272"
         font-size="14.00"
         id="text221"
         style="font-size:58.33380127px;font-family:Times, serif;text-anchor:start;fill:#000000;stroke-width:4.16669989">m</text>
      <polygon
         points="185.5,-44 148.5,-44 148.5,-64 185.5,-64 "
         id="polygon223"
         style="fill:none;stroke:#000000"
         transform="matrix(6.2886495,0,0,4.1588056,-361.76771,632.83316)" />
      <text
         x="673.70746"
         y="425.83673"
         font-size="14.00"
         id="text225"
         style="font-size:58.33380127px;font-family:Times, serif;text-anchor:start;fill:#000000;stroke-width:4.16669989">2</text>
      <polygon
         points="221.5,-64 221.5,-44 185.5,-44 185.5,-64 "
         id="polygon227"
         style="fill:none;stroke:#000000"
         transform="matrix(4.1667,0,0,4.1667,32.327585,633.3384)" />
      <text
         x="865.69672"
         y="425.83673"
         font-size="14.00"
         id="text229"
         style="font-size:58.33380127px;font-family:Times, serif;text-anchor:start;fill:#000000;stroke-width:4.16669989">o</text>
      <path
         d="m 357.33018,241.6686 c 0,0 89.34277,0 172.12465,0"
         id="path250"
         inkscape:connector-curvature="0"
         style="fill:none;stroke:#000000;stroke-width:3.44645143" />
      <polygon
         points="148.5,-94 138.5,-90.5001 138.5,-97.5001 "
         id="polygon252"
         style="fill:#000000;stroke:#000000"
         transform="matrix(4.1667,0,0,4.1667,-47.672415,633.3384)" />
    </g>
  </g>
</svg>
